nColumns=19
nRows=39
DataType=double
version=3
OpenSimVersion=4.1
endheader
time	ground_force_1_vx	ground_force_1_vy	ground_force_1_vz	ground_force_1_px	ground_force_1_py	ground_force_1_pz	ground_force_1_mx	ground_force_1_my	ground_force_1_mz	ground_force_2_vx	ground_force_2_vy	ground_force_2_vz	ground_force_2_px	ground_force_2_py	ground_force_2_pz	ground_force_2_mx	ground_force_2_my	ground_force_2_mz
1.19167	0	0	0	-0.000611543	0	-0.00139252	0	0	0	-0.158661	10.5933	2.53544	-0.000611829	0	-0.00139309	0	0	0
1.2	0	0	0	-0.000611609	0	-0.00139259	0	0	0	0	0	0	-0.000611897	0	-0.00139316	0	0	0
1.20833	0	0	0	-0.000611674	0	-0.00139265	0	0	0	0	0	0	-0.000611965	0	-0.00139324	0	0	0
1.21667	0	0	0	-0.000611739	0	-0.00139272	0	0	0	0	0	0	-0.000612033	0	-0.00139331	0	0	0
1.225	0	0	0	-0.000611803	0	-0.00139278	0	0	0	0	0	0	-0.000612101	0	-0.00139338	0	0	0
1.23333	0	0	0	-0.000611868	0	-0.00139285	0	0	0	0	0	0	-0.000612168	0	-0.00139345	0	0	0
1.24167	0	0	0	-0.000611932	0	-0.00139292	0	0	0	-0.130453	12.4545	-1.57088	-0.000612235	0	-0.00139352	0	0	0
1.25	0	0	0	-0.000611996	0	-0.00139298	0	0	0	-5.25039	26.9908	-4.86358	1.11339	0	-0.263563	0	-0.654722	0
1.25833	0	0	0	-0.00061206	0	-0.00139305	0	0	0	-14.8097	77.6258	-8.40313	1.1311	0	-0.321052	-0	2.36866	-0
1.26667	0	0	0	-0.000612123	0	-0.00139311	0	0	0	-30.5483	207.792	-11.7673	1.14951	0	-0.335549	-0	2.09206	-0
1.275	0	0	0	-0.000612187	0	-0.00139317	0	0	0	-51.6802	456.48	-13.6635	1.15256	0	-0.33626	0	-3.73707	0
1.28333	0	0	0	-0.00061225	0	-0.00139324	0	0	0	-80.307	792.723	-13.5962	1.14689	0	-0.332442	0	-12.337	0
1.29167	0	0	0	-0.000612313	0	-0.0013933	0	0	0	-121.548	1083.5	-15.5719	1.13729	0	-0.327871	0	-14.9529	0
1.3	0	0	0	-0.000612375	0	-0.00139337	0	0	0	-171.261	1214.7	-26.4597	1.12472	0	-0.325373	0	-4.2706	0
1.30833	0	0	0	-0.000612437	0	-0.00139343	0	0	0	-216.327	1227.66	-45.2675	1.10823	0	-0.327108	-0	14.7076	-0
1.31667	0	0	0	-0.000612499	0	-0.00139349	0	0	0	-246.335	1249.8	-56.755	1.08682	0	-0.331235	-0	24.9094	-0
1.325	0	0	0	-0.00061256	0	-0.00139355	0	0	0	-251.507	1348.99	-45.3283	1.06114	0	-0.332388	-0	13.9609	-0
1.33333	0	0	0	-0.000612622	0	-0.00139362	0	0	0	-223.568	1502.34	-15.9488	1.03228	0	-0.330298	0	-9.93274	0
1.34167	0	0	0	-0.000612683	0	-0.00139368	0	0	0	-169.221	1646.21	8.58845	1.0023	0	-0.329447	0	-24.6949	0
1.35	0	0	0	-0.000612743	0	-0.00139374	0	0	0	-109.09	1734.19	14.0182	0.97347	0	-0.331951	0	-18.5233	0
1.35833	0	0	0	-0.000612803	0	-0.0013938	0	0	0	-59.8375	1763.86	9.73185	0.946428	0	-0.335678	0	-2.28787	0
1.36667	0	0	0	-0.000612863	0	-0.00139386	0	0	0	-23.2669	1758.69	13.0175	0.920662	0	-0.337446	-0	5.02045	-0
1.375	0	0	0	-0.000612922	0	-0.00139392	0	0	0	8.53179	1730.49	25.6187	0.895539	0	-0.337103	0	-1.62375	0
1.38333	0	0	0	-0.000612981	0	-0.00139398	0	0	0	43.3616	1670.36	33.9225	0.870698	0	-0.337258	0	-11.0396	0
1.39167	0	0	0	-0.00061304	0	-0.00139404	0	0	0	81.0561	1573.54	28.8387	0.84558	0	-0.339012	0	-12.7652	0
1.4	0	0	0	-0.000613098	0	-0.0013941	0	0	0	115.964	1448.71	16.0308	0.819877	0	-0.340486	0	-8.6365	0
1.40833	0	0	0	-0.000613156	0	-0.00139416	0	0	0	145.019	1303.68	5.03249	0.793663	0	-0.33937	0	-5.82423	0
1.41667	0	0	0	-0.000613214	0	-0.00139422	0	0	0	171.637	1133.07	-3.77706	0.765029	0	-0.336058	0	-4.84356	0
1.425	0	0	0	-0.000613271	0	-0.00139428	0	0	0	197.57	928.416	-15.9819	0.729739	0	-0.33361	0	-0.312916	0
1.43333	0	0	0	-0.000613327	0	-0.00139433	0	0	0	212.131	704.984	-30.9359	0.687544	0	-0.334267	-0	8.40704	-0
1.44167	0	0	0	-0.000613383	0	-0.00139439	0	0	0	198.975	498.955	-39.4187	0.648358	0	-0.336406	-0	13.6314	-0
1.45	0	0	0	-0.000613439	0	-0.00139445	0	0	0	160.274	334.775	-34.546	0.625666	0	-0.334858	-0	8.66318	-0
1.45833	0	0	0	-0.000613494	0	-0.0013945	0	0	0	112.637	214.031	-20.8783	0.627116	0	-0.325687	0	-2.85819	0
1.46667	0	0	0	-0.000613549	0	-0.00139456	0	0	0	69.3165	126.383	-9.46077	0.646893	0	-0.312765	0	-10.4974	0
1.475	0	0	0	-0.000613603	0	-0.00139461	0	0	0	35.9317	63.8178	-5.70969	0.663459	0	-0.306332	0	-8.85198	0
1.48333	0	0	0	-0.000613656	0	-0.00139467	0	0	0	13.5936	25.5517	-5.61577	0.660657	0	-0.309569	0	-2.61892	0
1.49167	0	0	0	-0.00061371	0	-0.00139472	0	0	0	2.75156	10.4574	-3.28022	-0.000614092	0	-0.00139549	0	0	0
1.5	0	0	0	-0.000613762	0	-0.00139478	0	0	0	0	0	0	-0.000614147	0	-0.00139555	0	0	0
1.50833	0	0	0	-0.000613815	0	-0.00139483	0	0	0	0	0	0	-0.000614202	0	-0.0013956	0	0	0
